<?xml version="1.0" encoding="UTF-8" standalone="no"?>
<svg
   xmlns:dc="http://purl.org/dc/elements/1.1/"
   xmlns:cc="http://creativecommons.org/ns#"
   xmlns:rdf="http://www.w3.org/1999/02/22-rdf-syntax-ns#"
   xmlns:svg="http://www.w3.org/2000/svg"
   xmlns="http://www.w3.org/2000/svg"
   xmlns:sodipodi="http://sodipodi.sourceforge.net/DTD/sodipodi-0.dtd"
   xmlns:inkscape="http://www.inkscape.org/namespaces/inkscape"
   width="19"
   height="20"
   viewBox="0 0 19 20"
   fill="none"
   version="1.1"
   id="svg4"
   sodipodi:docname="download.svg"
   inkscape:version="0.92.4 (5da689c313, 2019-01-14)">
  <metadata
     id="metadata10">
    <rdf:RDF>
      <cc:Work
         rdf:about="">
        <dc:format>image/svg+xml</dc:format>
        <dc:type
           rdf:resource="http://purl.org/dc/dcmitype/StillImage" />
        <dc:title></dc:title>
      </cc:Work>
    </rdf:RDF>
  </metadata>
  <defs
     id="defs8" />
  <sodipodi:namedview
     pagecolor="#ffffff"
     bordercolor="#666666"
     borderopacity="1"
     objecttolerance="10"
     gridtolerance="10"
     guidetolerance="10"
     inkscape:pageopacity="0"
     inkscape:pageshadow="2"
     inkscape:window-width="1366"
     inkscape:window-height="768"
     id="namedview6"
     showgrid="false"
     inkscape:zoom="16.68772"
     inkscape:cx="8.1012635"
     inkscape:cy="5.4824989"
     inkscape:window-x="0"
     inkscape:window-y="47"
     inkscape:window-maximized="0"
     inkscape:current-layer="svg4" />
  <path
     inkscape:connector-curvature="0"
     style="clip-rule:evenodd;fill:#1c274c;fill-rule:evenodd;stroke-width:0.79875755"
     d="m 9.5000004,1.4132791 c 0.3308457,0 0.5990686,0.2682137 0.5990686,0.5990687 v 8.7644482 l 1.342394,-1.5661245 c 0.215264,-0.2512102 0.593476,-0.2802859 0.844683,-0.06494 0.25121,0.2152672 0.280285,0.5934759 0.06494,0.8446866 L 9.9548131,12.786069 c -0.113741,0.132752 -0.2799635,0.209194 -0.4548127,0.209194 -0.1748463,0 -0.341068,-0.07644 -0.4548124,-0.209194 L 6.6488841,9.9904176 C 6.433565,9.7392069 6.4626533,9.3609982 6.7138639,9.1457309 6.9650647,8.9303856 7.3432608,8.9594613 7.5585731,9.2106715 L 8.9009348,10.776796 V 2.0123478 c 0,-0.330855 0.2682199,-0.5990687 0.5990656,-0.5990687 z M 5.5028824,7.0061486 C 5.833728,7.0042132 6.1034295,7.2710238 6.1052733,7.6018757 6.1072087,7.9327312 5.8403988,8.2024295 5.5095526,8.2042671 4.6361105,8.2091295 4.0170102,8.2318067 3.5471419,8.3181209 3.0943958,8.4012814 2.8323401,8.5348411 2.6378852,8.7292605 2.4168191,8.9503559 2.272682,9.2607534 2.1938865,9.8468003 2.1127654,10.450183 2.111494,11.249818 2.111494,12.396357 v 0.798756 c 0,1.146534 0.00131,1.94617 0.082392,2.549553 0.078796,0.586127 0.2229325,0.896447 0.4439986,1.117542 0.2210636,0.221095 0.5314448,0.365191 1.1175467,0.444029 0.6033439,0.08107 1.4029886,0.08235 2.5495399,0.08235 h 6.3900598 c 1.146538,0 1.946173,-0.0013 2.549552,-0.08235 0.586132,-0.07884 0.896449,-0.222934 1.117544,-0.444029 0.221096,-0.221095 0.36519,-0.531415 0.444028,-1.117542 0.08107,-0.603383 0.08236,-1.403019 0.08236,-2.549553 v -0.798756 c 0,-1.146539 -0.0013,-1.946174 -0.08236,-2.5495567 C 16.727318,9.2607534 16.583223,8.9503559 16.362128,8.7292605 16.167629,8.5348411 15.905636,8.4012817 15.452899,8.3181209 14.982994,8.2318183 14.363877,8.2091328 13.490433,8.2042671 13.159589,8.2023271 12.892883,7.9327312 12.89472,7.6018757 c 0.0019,-0.3308519 0.271578,-0.597564 0.602424,-0.5957271 0.863855,0.00481 1.583856,0.025477 2.17214,0.13355 0.60546,0.111213 1.120738,0.3230837 1.540085,0.7423724 0.480772,0.4807815 0.68757,1.0861755 0.784222,1.8051364 0.09305,0.6924456 0.09305,1.5729946 0.09305,2.6652956 v 0.886461 c 0,1.092381 0,1.972849 -0.09305,2.665375 -0.09665,0.718961 -0.30345,1.324258 -0.784222,1.805111 -0.480853,0.480772 -1.08615,0.687569 -1.805111,0.784221 -0.692524,0.09314 -1.572995,0.09305 -2.665376,0.09305 H 6.2611435 c -1.0923715,0 -1.9728591,6.5e-5 -2.6653564,-0.09305 C 2.8768168,18.397019 2.2714615,18.190222 1.7906733,17.70945 1.3098856,17.228597 1.1030936,16.6233 1.00643,15.904339 0.9133275,15.211813 0.9133437,14.331345 0.9133593,13.238964 v -0.886461 c -1.56e-5,-1.092301 -2.56e-5,-1.97285 0.09307,-2.6652956 C 1.1030936,8.9682465 1.3098856,8.3628525 1.7906733,7.882071 2.2099657,7.4627723 2.7252215,7.2509116 3.3306766,7.1396986 3.9190096,7.0316369 4.6390031,7.0109568 5.5028824,7.0061486 Z"
     id="path2" />
</svg>
