<?xml version="1.0" encoding="UTF-8" standalone="no"?>
<svg
   width="92pt"
   height="92pt"
   viewBox="0 0 92 92"
   version="1.1"
   id="svg2"
   sodipodi:docname="svn.svg"
   inkscape:version="1.3 (0e150ed6c4, 2023-07-21)"
   xmlns:inkscape="http://www.inkscape.org/namespaces/inkscape"
   xmlns:sodipodi="http://sodipodi.sourceforge.net/DTD/sodipodi-0.dtd"
   xmlns="http://www.w3.org/2000/svg"
   xmlns:svg="http://www.w3.org/2000/svg">
  <sodipodi:namedview
     id="namedview2"
     pagecolor="#ffffff"
     bordercolor="#000000"
     borderopacity="0.25"
     inkscape:showpageshadow="2"
     inkscape:pageopacity="0.0"
     inkscape:pagecheckerboard="0"
     inkscape:deskcolor="#d1d1d1"
     inkscape:document-units="pt"
     inkscape:zoom="6.1818946"
     inkscape:cx="41.168609"
     inkscape:cy="61.065422"
     inkscape:window-width="1920"
     inkscape:window-height="1009"
     inkscape:window-x="-8"
     inkscape:window-y="-8"
     inkscape:window-maximized="1"
     inkscape:current-layer="svg2" />
  <defs
     id="defs1">
    <clipPath
       id="a">
      <path
         d="M0 .113h91.887V92H0Zm0 0"
         id="path1" />
    </clipPath>
  </defs>
  <path
     fill="#7d98c4"
     d="M 88.551391,10.049816 H 0.2773681 V 34.417697 C 12.652517,29.203441 29.22011,23.935231 49.987777,18.636189 A 625.94831,632.35868 0 0 1 88.551391,10.049816 Z M 59.440799,21.750099 c -10.87212,2.77477 -19.684264,5.603494 -26.321983,8.436073 -6.637718,2.774771 -9.727691,5.083226 -9.327139,6.821311 0.400553,1.556955 3.173898,2.250648 8.373444,2.135032 2.658902,-0.05395 6.996309,-0.346846 13.008403,-0.924923 A 1114.8315,1126.2486 0 0 0 68.416978,35.847475 C 77.79371,34.857036 85.594937,34.174905 91.832103,33.78952 V 15.248657 l -0.0038,0.146446 C 79.811728,17.187142 68.996825,19.322175 59.440799,21.750099 Z M 0.2773681,77.318735 v 0.173423 H 91.832103 V 53.197499 C 79.300547,58.192086 63.747686,63.044082 45.177339,67.784315 27.881123,72.193117 12.911922,75.372542 0.2773681,77.318735 Z M 65.040898,55.575324 c 6.111278,-2.709255 8.926586,-4.998441 8.468813,-6.855996 -0.408182,-1.618616 -3.227305,-2.447193 -8.45737,-2.485732 -2.681791,0.03854 -6.370684,0.231231 -11.078123,0.578077 -4.715064,0.346847 -10.582197,0.9018 -17.586134,1.641739 -10.872125,1.17157 -19.897898,2.069517 -27.0849444,2.674571 -3.4180436,0.285185 -6.4279057,0.504854 -9.0257715,0.6513 V 71.549525 C 14.537019,69.429908 27.423348,66.905638 38.921098,63.972859 c 11.29938,-2.882678 20.00852,-5.680572 26.1198,-8.397535 z M 4.8360312,64.697383 A 0.88502915,0.89409278 0 0 1 4.2104071,64.951736 0.90028828,0.90950817 0 0 1 3.5733387,64.689675 c -0.08774,-0.05396 -0.1525912,-0.169569 -0.190739,-0.285185 0,-0.05781 -0.061037,-0.173423 -0.061037,-0.346846 0,-0.231231 0.1144435,-0.462462 0.2861086,-0.635885 0.1716651,-0.173423 0.4005519,-0.231231 0.6866606,-0.231231 l -0.068666,-0.05036 c 0.228887,0 0.4348851,0.09635 0.610365,0.26977 a 0.88884393,0.89794662 0 0 1 0,1.287184 z m 0,-5.834727 a 0.86977002,0.87867738 0 0 1 -0.6256241,0.26977 0.86595525,0.87482354 0 0 1 -0.6370684,-0.26977 0.87739959,0.88638508 0 0 1 -0.2670346,-0.635885 c 0,-0.258207 0.061037,-0.474022 0.2288869,-0.647446 a 0.89265871,0.90180048 0 0 1 0.6332536,-0.262062 l 0.057222,0.0038 c 0.228887,0 0.4348851,0.08478 0.6103651,0.26977 0.1754798,0.173423 0.2670346,0.385384 0.2670346,0.635884 0,0.254354 -0.091554,0.462462 -0.2670346,0.635885 z m 3.1052316,5.834727 A 1.0299908,1.040539 0 0 1 6.911272,64.882367 0.74006748,0.74764655 0 0 1 6.6213486,64.689675 C 6.5069052,64.635725 6.4496835,64.520106 6.3924618,64.40449 c -0.057222,-0.05781 -0.057222,-0.173423 -0.057222,-0.346846 0,-0.231231 0.053406,-0.462462 0.2288868,-0.635885 A 0.85832569,0.86711584 0 0 1 7.189751,63.190528 l 0.1258878,-0.05036 c 0.2403311,0 0.4463293,0.09635 0.6294388,0.26977 a 0.87739959,0.88638508 0 0 1 0.2517755,0.639738 c 0,0.254354 -0.083925,0.462462 -0.2555903,0.647446 z m 0,-5.834727 C 7.712376,59.03608 7.536896,59.132426 7.2546022,59.132426 A 0.81254831,0.82086967 0 0 1 6.6213486,58.862656 0.8964735,0.90565432 0 0 1 6.3352401,58.226771 c 0,-0.258207 0.053406,-0.474022 0.2288868,-0.647446 A 0.88884393,0.89794662 0 0 1 7.189751,57.317263 l 0.1258878,0.0038 c 0.2403311,0 0.4463293,0.08478 0.6294388,0.26977 0.1716651,0.173423 0.2517755,0.385384 0.2517755,0.635884 0,0.254354 -0.083925,0.462462 -0.2555903,0.635885 z"
     id="path2"
     style="stroke-width:3.83427" />
</svg>
